REM DIRINDEX 1\2,1\3,1\4,1\5
REM DIRNAME cjc005,folder01,folder02,folder03,folder04
TITLE ""
FILE "P1Q_t_0282-0291.mp3" MP3
  TRACK 01 AUDIO
    TITLE "3:cjc005_1747"
    INDEX 01 00:00:00
  TRACK 02 AUDIO
    TITLE "0:"
    INDEX 01 00:01:36
  TRACK 03 AUDIO
    TITLE "4:cjc005_1748"
    INDEX 01 00:01:48
  TRACK 04 AUDIO
    TITLE "0:"
    INDEX 01 00:02:53
  TRACK 05 AUDIO
    TITLE "5:cjc005_1749"
    INDEX 01 00:03:00
  TRACK 06 AUDIO
    TITLE "0:"
    INDEX 01 00:06:57
  TRACK 07 AUDIO
    TITLE "3:cjc005_1750"
    INDEX 01 00:07:33
  TRACK 08 AUDIO
    TITLE "0:"
    INDEX 01 00:08:46
  TRACK 09 AUDIO
    TITLE "4:cjc005_1751"
    INDEX 01 00:08:72
  TRACK 10 AUDIO
    TITLE "0:"
    INDEX 01 00:10:21
  TRACK 11 AUDIO
    TITLE "5:cjc005_1752"
    INDEX 01 00:10:39
  TRACK 12 AUDIO
    TITLE "0:"
    INDEX 01 00:14:41
  TRACK 13 AUDIO
    TITLE "3:cjc005_1753"
    INDEX 01 00:15:17
  TRACK 14 AUDIO
    TITLE "0:"
    INDEX 01 00:16:42
  TRACK 15 AUDIO
    TITLE "4:cjc005_1754"
    INDEX 01 00:16:67
  TRACK 16 AUDIO
    TITLE "0:"
    INDEX 01 00:18:01
  TRACK 17 AUDIO
    TITLE "5:cjc005_1755"
    INDEX 01 00:18:25
  TRACK 18 AUDIO
    TITLE "0:"
    INDEX 01 00:22:19
  TRACK 19 AUDIO
    TITLE "3:cjc005_1756"
    INDEX 01 00:23:01
  TRACK 20 AUDIO
    TITLE "0:"
    INDEX 01 00:24:06
  TRACK 21 AUDIO
    TITLE "4:cjc005_1757"
    INDEX 01 00:24:27
  TRACK 22 AUDIO
    TITLE "0:"
    INDEX 01 00:25:60
  TRACK 23 AUDIO
    TITLE "5:cjc005_1758"
    INDEX 01 00:26:07
  TRACK 24 AUDIO
    TITLE "0:"
    INDEX 01 00:30:44
  TRACK 25 AUDIO
    TITLE "3:cjc005_1759"
    INDEX 01 00:31:20
  TRACK 26 AUDIO
    TITLE "0:"
    INDEX 01 00:32:37
  TRACK 27 AUDIO
    TITLE "4:cjc005_1760"
    INDEX 01 00:32:62
  TRACK 28 AUDIO
    TITLE "0:"
    INDEX 01 00:34:30
  TRACK 29 AUDIO
    TITLE "5:cjc005_1761"
    INDEX 01 00:34:49
  TRACK 30 AUDIO
    TITLE "0:"
    INDEX 01 00:38:69
  TRACK 31 AUDIO
    TITLE "3:cjc005_1762"
    INDEX 01 00:39:45
  TRACK 32 AUDIO
    TITLE "0:"
    INDEX 01 00:41:02
  TRACK 33 AUDIO
    TITLE "4:cjc005_1763"
    INDEX 01 00:41:20
  TRACK 34 AUDIO
    TITLE "0:"
    INDEX 01 00:42:35
  TRACK 35 AUDIO
    TITLE "5:cjc005_1764"
    INDEX 01 00:42:61
  TRACK 36 AUDIO
    TITLE "0:"
    INDEX 01 00:47:27
  TRACK 37 AUDIO
    TITLE "3:cjc005_1765"
    INDEX 01 00:47:68
  TRACK 38 AUDIO
    TITLE "0:"
    INDEX 01 00:49:31
  TRACK 39 AUDIO
    TITLE "4:cjc005_1766"
    INDEX 01 00:49:57
  TRACK 40 AUDIO
    TITLE "0:"
    INDEX 01 00:50:72
  TRACK 41 AUDIO
    TITLE "5:cjc005_1767"
    INDEX 01 00:51:22
  TRACK 42 AUDIO
    TITLE "0:"
    INDEX 01 00:54:72
  TRACK 43 AUDIO
    TITLE "3:cjc005_1768"
    INDEX 01 00:55:44
  TRACK 44 AUDIO
    TITLE "0:"
    INDEX 01 00:56:45
  TRACK 45 AUDIO
    TITLE "4:cjc005_1769"
    INDEX 01 00:56:69
  TRACK 46 AUDIO
    TITLE "0:"
    INDEX 01 00:58:01
  TRACK 47 AUDIO
    TITLE "5:cjc005_1770"
    INDEX 01 00:58:28
  TRACK 48 AUDIO
    TITLE "0:"
    INDEX 01 01:01:44
  TRACK 49 AUDIO
    TITLE "3:cjc005_1771"
    INDEX 01 01:02:18
  TRACK 50 AUDIO
    TITLE "0:"
    INDEX 01 01:03:27
  TRACK 51 AUDIO
    TITLE "4:cjc005_1772"
    INDEX 01 01:03:57
  TRACK 52 AUDIO
    TITLE "0:"
    INDEX 01 01:04:68
  TRACK 53 AUDIO
    TITLE "5:cjc005_1773"
    INDEX 01 01:05:21
  TRACK 54 AUDIO
    TITLE "0:"
    INDEX 01 01:09:28
  TRACK 55 AUDIO
    TITLE "3:cjc005_1774"
    INDEX 01 01:10:12
  TRACK 56 AUDIO
    TITLE "0:"
    INDEX 01 01:11:35
  TRACK 57 AUDIO
    TITLE "4:cjc005_1775"
    INDEX 01 01:11:56
  TRACK 58 AUDIO
    TITLE "0:"
    INDEX 01 01:12:66
  TRACK 59 AUDIO
    TITLE "5:cjc005_1776"
    INDEX 01 01:13:18
  TRACK 60 AUDIO
    TITLE "0:"
    INDEX 01 01:17:39
